<svg width="100" height="77" viewBox="0 0 100 77" fill="none" xmlns="http://www.w3.org/2000/svg">
<path d="M63.5193 54.7715H36.4795V6.55566H63.5193V54.7715Z" fill="#6C6BBD"/>
<path d="M38.1965 30.6643C38.1965 20.8833 42.8117 12.1708 49.9992 6.55632C44.7434 2.45068 38.1094 0 30.9008 0C13.8344 0 0 13.7285 0 30.6643C0 47.5996 13.8344 61.3281 30.9008 61.3281C38.1098 61.3281 44.7434 58.8775 49.9992 54.7718C42.8117 49.1573 38.1965 40.4449 38.1965 30.6643Z" fill="#D32011"/>
<path d="M100 30.6643C100 47.5996 86.1658 61.3281 69.0994 61.3281C61.8904 61.3281 55.2568 58.8775 49.999 54.7718C57.1885 49.1573 61.8037 40.4449 61.8037 30.6643C61.8037 20.8833 57.1885 12.1708 49.999 6.55632C55.2568 2.45068 61.8908 0 69.0994 0C86.1658 0 100 13.7285 100 30.6643Z" fill="#0099DF"/>
<path d="M72.6695 68.3953C73.0289 68.3953 73.5457 68.4635 73.9406 68.6174L73.3906 70.2863C73.0133 70.1324 72.6359 70.0817 72.2746 70.0817C71.1074 70.0817 70.5238 70.8301 70.5238 72.1754V76.7411H68.7379V68.5999H70.5062V69.5883C70.9699 68.8728 71.6398 68.3953 72.6695 68.3953ZM66.0715 70.2181H63.1535V73.8966C63.1535 74.7136 63.4445 75.2594 64.3387 75.2594C64.8023 75.2594 65.3855 75.1055 65.9164 74.7993L66.4308 76.3143C65.8652 76.7058 64.973 76.9461 64.2008 76.9461C62.0887 76.9461 61.3519 75.821 61.3519 73.93V70.2181H59.6859V68.5999H61.3519V66.1299H63.1535V68.5999H66.0715V70.2181ZM43.2223 71.9552C43.4129 70.7797 44.1324 69.9786 45.4035 69.9786C46.5527 69.9786 47.2914 70.6936 47.4801 71.9552H43.2223ZM49.3351 72.6707C49.3172 70.132 47.7375 68.3953 45.4367 68.3953C43.034 68.3953 41.3519 70.1324 41.3519 72.6703C41.3519 75.2574 43.1027 76.9438 45.5586 76.9438C46.7945 76.9438 47.9262 76.6376 48.9223 75.8035L48.0461 74.4916C47.3605 75.0373 46.484 75.3435 45.6609 75.3435C44.5113 75.3435 43.4641 74.8152 43.2066 73.3513H49.2996C49.3172 73.1288 49.3348 72.9083 49.3348 72.6707H49.3351ZM57.1789 70.6781C56.6816 70.37 55.6695 69.9782 54.6223 69.9782C53.6437 69.9782 53.0601 70.3371 53.0601 70.9336C53.0601 71.4773 53.6773 71.6312 54.4496 71.7328L55.2906 71.8517C57.0766 72.1091 58.157 72.8579 58.157 74.2889C58.157 75.8384 56.7836 76.9457 54.416 76.9457C53.0762 76.9457 51.8402 76.6046 50.8613 75.8892L51.7027 74.509C52.3039 74.9691 53.198 75.3609 54.4336 75.3609C55.6519 75.3609 56.3043 75.0043 56.3043 74.3726C56.3043 73.9144 55.8406 73.6571 54.8621 73.5226L54.0211 73.4036C52.184 73.1463 51.1879 72.3292 51.1879 71.0018C51.1879 69.3836 52.5277 68.3953 54.6047 68.3953C55.9094 68.3953 57.0941 68.686 57.9508 69.2472L57.1785 70.6781H57.1789ZM79.1945 70.0774C78.8273 70.0774 78.4875 70.1421 78.1711 70.2689C77.8649 70.3918 77.5868 70.5748 77.3535 70.8068C77.1189 71.0444 76.9346 71.3262 76.8113 71.6355C76.6797 71.9572 76.6148 72.3118 76.6148 72.6978C76.6148 73.0858 76.6797 73.4385 76.8113 73.7602C76.943 74.0819 77.1238 74.359 77.3535 74.5888C77.5868 74.8209 77.8649 75.0038 78.1711 75.1268C78.4875 75.2555 78.8273 75.3179 79.1945 75.3179C79.5617 75.3179 79.9039 75.2559 80.218 75.1268C80.5256 75.0044 80.805 74.8214 81.0394 74.5888C81.2734 74.359 81.4543 74.0819 81.5879 73.7602C81.7195 73.4385 81.7844 73.0858 81.7844 72.6978C81.7844 72.3118 81.7195 71.9572 81.5879 71.6355C81.4543 71.3138 81.2734 71.037 81.0394 70.8068C80.8052 70.5743 80.5258 70.3913 80.2183 70.2689C79.893 70.1398 79.5453 70.0749 79.1949 70.0778L79.1945 70.0774ZM79.1945 68.3953C79.8312 68.3953 80.4207 68.5046 80.9629 68.7247C81.4872 68.9317 81.9653 69.2391 82.3699 69.6293C82.7682 70.0167 83.0842 70.4792 83.2992 70.9898C83.523 71.5145 83.6351 72.0839 83.6351 72.6978C83.6351 73.3118 83.523 73.8811 83.2992 74.4055C83.0841 74.9168 82.768 75.3801 82.3695 75.7682C81.975 76.1523 81.5051 76.4527 80.9633 76.6729C80.4203 76.8915 79.8312 77.0004 79.1945 77.0004C78.5578 77.0004 77.9683 76.8915 77.4262 76.6729C76.884 76.4527 76.4183 76.1523 76.0254 75.7682C75.6293 75.3789 75.3147 74.9158 75.0996 74.4055C74.8758 73.8811 74.7637 73.3118 74.7637 72.6978C74.7637 72.0839 74.8758 71.5145 75.0996 70.9901C75.3148 70.4804 75.6294 70.018 76.0254 69.6293C76.4273 69.2387 76.9034 68.9312 77.4262 68.7247C77.9683 68.5046 78.5578 68.3953 79.1945 68.3953ZM32.7934 72.6703C32.7934 71.2398 33.7387 70.0642 35.2828 70.0642C36.7586 70.0642 37.7547 71.189 37.7547 72.6707C37.7547 74.152 36.7586 75.2752 35.2828 75.2752C33.7387 75.2752 32.7934 74.1016 32.7934 72.6707V72.6703ZM39.4367 72.6703V68.5999H37.6523V69.5883C37.0848 68.8554 36.2281 68.3953 35.0609 68.3953C32.7602 68.3953 30.9582 70.1828 30.9582 72.6703C30.9582 75.1563 32.7602 76.9457 35.0609 76.9457C36.2281 76.9457 37.0844 76.4857 37.6523 75.7527V76.7411H39.4367V72.6707V72.6703ZM29.3781 76.7415V71.632C29.3781 69.7076 28.1422 68.4131 26.152 68.3957C25.1047 68.3782 24.0219 68.7019 23.2676 69.8441C22.7016 68.9414 21.8078 68.3957 20.5543 68.3957C19.6797 68.3957 18.8211 68.6511 18.1512 69.6042V68.6003H16.3672V76.7415H18.1688V72.2285C18.1688 70.815 18.9586 70.0646 20.1766 70.0646C21.3617 70.0646 21.9629 70.8305 21.9629 72.211V76.7415H23.7648V72.2281C23.7648 70.8146 24.5898 70.0642 25.7727 70.0642C26.993 70.0642 27.5766 70.8301 27.5766 72.2106V76.7415H29.3781Z" fill="#110F0D"/>
</svg>
