<svg width="48" height="48" viewBox="0 0 48 48" fill="none" xmlns="http://www.w3.org/2000/svg">
<path d="M24 0C10.7451 0 0 10.7451 0 24C0 37.2549 10.7451 48 24 48C37.2549 48 48 37.2549 48 24C48 10.7451 37.2549 0 24 0Z" fill="#F4DA0E"/>
<path d="M35.6782 13.806L31.3914 35.419C31.3914 35.419 30.792 36.9179 29.1433 36.1984L19.2511 28.6144L15.6541 26.8759L9.59902 24.8374C9.59902 24.8374 8.66977 24.5078 8.57977 23.7884C8.48977 23.0689 9.62902 22.6793 9.62902 22.6793L33.6995 13.2368C33.6995 13.2368 35.678 12.3675 35.678 13.8064" fill="white"/>
<path d="M18.4909 35.1755C18.4909 35.1755 18.2022 35.1485 17.8422 34.0092C17.4827 32.8701 15.6541 26.875 15.6541 26.875L30.1924 17.6425C30.1924 17.6425 31.0319 17.1329 31.0019 17.6425C31.0019 17.6425 31.1517 17.7325 30.7019 18.1521C30.2524 18.572 19.2812 28.4339 19.2812 28.4339" fill="#F4DA0E"/>
<path d="M23.0438 31.5211L19.1312 35.0885C19.1312 35.0885 18.8252 35.3206 18.4907 35.1751L19.24 28.5488" fill="white"/>
</svg>
