<svg width="85" height="85" viewBox="0 0 85 85" fill="none" xmlns="http://www.w3.org/2000/svg">
<path d="M80.6683 66.9712C80.6683 68.8316 79.9293 70.6158 78.6138 71.9313C77.2983 73.2468 75.5141 73.9858 73.6537 73.9858H10.5224C8.66202 73.9858 6.87783 73.2468 5.56234 71.9313C4.24685 70.6158 3.50781 68.8316 3.50781 66.9712V28.391C3.50781 26.5306 4.24685 24.7464 5.56234 23.4309C6.87783 22.1154 8.66202 21.3764 10.5224 21.3764H24.5516L31.5662 10.8545H52.6099L59.6245 21.3764H73.6537C75.5141 21.3764 77.2983 22.1154 78.6138 23.4309C79.9293 24.7464 80.6683 26.5306 80.6683 28.391V66.9712Z" stroke="#8B8B8B" stroke-width="2" stroke-linecap="round" stroke-linejoin="round"/>
<path d="M42.0868 59.9568C49.8349 59.9568 56.116 53.6757 56.116 45.9276C56.116 38.1795 49.8349 31.8984 42.0868 31.8984C34.3387 31.8984 28.0576 38.1795 28.0576 45.9276C28.0576 53.6757 34.3387 59.9568 42.0868 59.9568Z" stroke="#8B8B8B" stroke-width="2" stroke-linecap="round" stroke-linejoin="round"/>
</svg>
