<svg width="100" height="78" viewBox="0 0 100 78" fill="none" xmlns="http://www.w3.org/2000/svg">
<path d="M18.1977 77.4239V72.2738C18.1977 70.2992 16.9958 69.012 14.9355 69.012C13.9056 69.012 12.7897 69.3553 12.017 70.4713C11.4164 69.527 10.5582 69.012 9.27056 69.012C8.4119 69.012 7.55402 69.2693 6.86701 70.2136V69.1837H5.06445V77.4239H6.86701V72.8744C6.86701 71.4156 7.63965 70.7286 8.84162 70.7286C10.0428 70.7286 10.6442 71.5012 10.6442 72.8744V77.4239H12.4467V72.8744C12.4467 71.4156 13.3046 70.7286 14.4206 70.7286C15.6225 70.7286 16.2231 71.5012 16.2231 72.8744V77.4239H18.1977ZM44.8924 69.1837H41.9743V66.6945H40.1717V69.1837H38.5408V70.8142H40.1714V74.5914C40.1714 76.4799 40.944 77.5955 43.0042 77.5955C43.7769 77.5955 44.6348 77.3382 45.2361 76.9949L44.7208 75.4496C44.2058 75.7929 43.6052 75.879 43.1759 75.879C42.3176 75.879 41.9743 75.364 41.9743 74.5053V70.8142H44.8924V69.1837ZM60.1716 69.0116C59.1416 69.0116 58.455 69.527 58.0257 70.2136V69.1837H56.2231V77.4239H58.0257V72.7888C58.0257 71.4156 58.6263 70.6429 59.7422 70.6429C60.0855 70.6429 60.5149 70.729 60.8582 70.8146L61.3731 69.0981C61.0298 69.012 60.5149 69.012 60.1716 69.012V69.0116ZM37.0816 69.8703C36.2229 69.2693 35.0214 69.012 33.7338 69.012C31.6739 69.012 30.3007 70.042 30.3007 71.6729C30.3007 73.0465 31.3306 73.8187 33.1332 74.0764L33.9914 74.1624C34.9357 74.3337 35.4507 74.5914 35.4507 75.0207C35.4507 75.6213 34.7641 76.0506 33.5621 76.0506C32.3605 76.0506 31.4162 75.6213 30.8153 75.1924L29.957 76.5656C30.9013 77.2522 32.1889 77.5955 33.4761 77.5955C35.8796 77.5955 37.2533 76.48 37.2533 74.9347C37.2533 73.4754 36.1373 72.7028 34.4204 72.4455L33.5621 72.3595C32.7895 72.2735 32.1889 72.1022 32.1889 71.5872C32.1889 70.9862 32.7895 70.6429 33.7338 70.6429C34.7641 70.6429 35.794 71.0719 36.309 71.3296L37.0816 69.8703ZM84.9785 69.012C83.9482 69.012 83.2615 69.527 82.8322 70.2136V69.1837H81.0296V77.4239H82.8322V72.7888C82.8322 71.4156 83.4332 70.6429 84.5487 70.6429C84.8924 70.6429 85.3218 70.729 85.6651 70.8146L86.18 69.0981C85.8367 69.012 85.3218 69.012 84.9785 69.012ZM61.9741 73.3038C61.9741 75.7929 63.6907 77.5955 66.3519 77.5955C67.5535 77.5955 68.4117 77.3382 69.27 76.6516L68.4117 75.1924C67.7251 75.7073 67.0385 75.9646 66.2659 75.9646C64.8066 75.9646 63.7767 74.9347 63.7767 73.3038C63.7767 71.7589 64.8066 70.7286 66.2659 70.6429C67.0385 70.6429 67.7251 70.9002 68.4117 71.4156L69.27 69.9563C68.4117 69.2693 67.5535 69.012 66.3519 69.012C63.6907 69.012 61.9741 70.8146 61.9741 73.3038ZM78.6265 73.3038V69.1837H76.8239V70.2136C76.223 69.4414 75.3647 69.012 74.2487 69.012C71.9312 69.012 70.1287 70.8146 70.1287 73.3038C70.1287 75.7929 71.9312 77.5955 74.2487 77.5955C75.4503 77.5955 76.309 77.1666 76.8239 76.3939V77.4239H78.6265V73.3038ZM72.0168 73.3038C72.0168 71.8445 72.9611 70.6429 74.506 70.6429C75.9653 70.6429 76.9956 71.7589 76.9956 73.3038C76.9956 74.763 75.9653 75.9646 74.506 75.9646C72.9611 75.8786 72.0168 74.763 72.0168 73.3038ZM50.4721 69.012C48.0686 69.012 46.3517 70.7286 46.3517 73.3038C46.3517 75.879 48.0682 77.5955 50.5578 77.5955C51.7594 77.5955 52.9613 77.2522 53.9056 76.4799L53.047 75.1924C52.3603 75.7073 51.5021 76.0506 50.6438 76.0506C49.5279 76.0506 48.4119 75.5357 48.1542 74.076H54.2489V73.3898C54.3349 70.7286 52.7897 69.012 50.4718 69.012H50.4721ZM50.4721 70.5569C51.5877 70.5569 52.3607 71.2439 52.532 72.5315H48.2403C48.4119 71.4156 49.1845 70.5569 50.4721 70.5569ZM95.1928 73.3038V65.9219H93.3903V70.2136C92.7893 69.4414 91.931 69.012 90.8151 69.012C88.4976 69.012 86.695 70.8146 86.695 73.3038C86.695 75.7929 88.4976 77.5955 90.8151 77.5955C92.0171 77.5955 92.8753 77.1666 93.3903 76.3939V77.4239H95.1928V73.3038ZM88.5836 73.3038C88.5836 71.8445 89.5275 70.6429 91.0728 70.6429C92.532 70.6429 93.5619 71.7589 93.5619 73.3038C93.5619 74.763 92.532 75.9646 91.0728 75.9646C89.5275 75.8786 88.5836 74.763 88.5836 73.3038ZM28.3261 73.3038V69.1837H26.5235V70.2136C25.9225 69.4414 25.0643 69.012 23.9483 69.012C21.6308 69.012 19.8282 70.8146 19.8282 73.3038C19.8282 75.7929 21.6308 77.5955 23.9483 77.5955C25.1503 77.5955 26.0086 77.1666 26.5235 76.3939V77.4239H28.3261V73.3038ZM21.6308 73.3038C21.6308 71.8445 22.5751 70.6429 24.12 70.6429C25.5792 70.6429 26.6095 71.7589 26.6095 73.3038C26.6095 74.763 25.5792 75.9646 24.12 75.9646C22.5751 75.8786 21.6308 74.763 21.6308 73.3038Z" fill="black"/>
<path d="M36.4805 6.60938H63.5189V55.1929H36.4805V6.60938Z" fill="#FF5F00"/>
<path d="M38.1975 30.9012C38.1975 21.0301 42.8325 12.2746 49.9567 6.60926C44.7211 2.48917 38.1118 0 30.9016 0C13.8195 0 0 13.8195 0 30.9012C0 47.9825 13.8195 61.8024 30.9012 61.8024C38.1114 61.8024 44.7207 59.3132 49.9567 55.1927C42.8325 49.6134 38.1975 40.7723 38.1975 30.9012Z" fill="#EB001B"/>
<path d="M99.9997 30.9012C99.9997 47.9825 86.1802 61.8024 69.0985 61.8024C61.8882 61.8024 55.279 59.3132 50.043 55.1927C57.2532 49.5278 61.8026 40.7723 61.8026 30.9012C61.8026 21.0301 57.1672 12.2746 50.043 6.60926C55.2786 2.48917 61.8882 0 69.0985 0C86.1802 0 100 13.9055 100 30.9012H99.9997Z" fill="#F79E1B"/>
</svg>
