<svg width="100" height="32" viewBox="0 0 100 32" fill="none" xmlns="http://www.w3.org/2000/svg">
<path d="M51.7176 10.23C51.6605 14.6878 55.7266 17.1752 58.7895 18.6543C61.9363 20.1717 62.9934 21.1448 62.9809 22.502C62.9574 24.5787 60.4707 25.4953 58.1438 25.5309C54.084 25.5933 51.7234 24.4448 49.8469 23.5761L48.3844 30.3576C50.2672 31.2173 53.7535 31.9671 57.3687 32C65.8551 32 71.407 27.8488 71.4371 21.4127C71.4703 13.2443 60.0355 12.7922 60.1137 9.14114C60.1406 8.03406 61.2066 6.85266 63.5426 6.55228C64.6988 6.40054 67.8906 6.28442 71.5094 7.93574L72.9297 1.37456C70.9836 0.672377 68.4824 0 65.3684 0C57.3809 0 51.7629 4.20767 51.7176 10.23ZM86.5773 0.565151C85.0277 0.565151 83.7219 1.46088 83.1391 2.83544L71.0168 31.5181H79.4969L81.1844 26.8966H91.5469L92.5258 31.5181H100L93.4777 0.565151H86.5773ZM87.7637 8.92669L90.2109 20.5499H83.5086L87.7637 8.92669ZM41.4359 0.565538L34.7516 31.5177H42.8324L49.5137 0.564764L41.4359 0.565538ZM29.4816 0.564764L21.0707 21.6329L17.6684 3.71955C17.2691 1.71984 15.6926 0.565151 13.9418 0.565151H0.192578L0 1.46398C2.82266 2.07093 6.02969 3.04989 7.97266 4.09735C9.16172 4.73721 9.50078 5.29656 9.89141 6.81705L16.3355 31.5181H24.875L37.9672 0.565151L29.4816 0.564764Z" fill="url(#paint0_linear_250_250)"/>
<defs>
<linearGradient id="paint0_linear_250_250" x1="45.974" y1="32.6419" x2="46.8919" y2="-0.223019" gradientUnits="userSpaceOnUse">
<stop stop-color="#222357"/>
<stop offset="1" stop-color="#254AA5"/>
</linearGradient>
</defs>
</svg>
